<svg width="103" height="102" viewBox="0 0 103 102" fill="none" xmlns="http://www.w3.org/2000/svg">
<path d="M66.4631 57.5168C65.8333 56.874 65.6277 56.2354 65.6364 55.3869L65.854 34.1748C65.8714 32.4779 67.1572 31.2182 68.8541 31.2356C70.5511 31.253 71.8108 32.5388 71.7934 34.2358L71.5758 55.4479C71.5584 57.1448 70.2726 58.4045 68.5756 58.3871C67.7271 58.3784 67.0929 58.1597 66.4631 57.5168Z" fill="white"/>
<path d="M45.4698 36.0872C44.8399 35.4443 44.6343 34.8057 44.643 33.9572C44.6604 32.2603 45.9462 31.0006 47.6432 31.018L68.8553 31.2356C70.5523 31.253 71.8119 32.5388 71.7945 34.2358C71.7771 35.9327 70.4913 37.1924 68.7944 37.175L47.5823 36.9574C46.7338 36.9487 46.0996 36.73 45.4698 36.0872Z" fill="white"/>
<path d="M32.3932 69.8959C31.1335 68.6102 31.1509 66.9132 32.4367 65.6535L66.7242 32.0623C68.01 30.8027 69.707 30.8201 70.9666 32.1059C72.2263 33.3916 72.2089 35.0886 70.9231 36.3483L36.6356 69.9395C35.3498 71.1991 33.6529 71.1817 32.3932 69.8959Z" fill="white"/>
</svg>
