<svg width="32" height="32" viewBox="0 0 32 32" fill="none" xmlns="http://www.w3.org/2000/svg">
<path opacity="0.4" d="M2.66797 14.7725C2.73464 17.8885 2.9213 23.2218 2.94797 23.8085C3.04264 25.0658 3.52397 26.3365 4.2733 27.2325C5.31597 28.4911 6.59997 29.0511 8.39064 29.0511C10.8653 29.0645 13.5933 29.0645 16.244 29.0645C18.9026 29.0645 21.484 29.0645 23.664 29.0511C25.4293 29.0511 26.7533 28.4765 27.784 27.2325C28.532 26.3378 29.0133 25.0538 29.0813 23.8098C29.108 23.3138 29.2413 17.5271 29.3213 14.7725H2.66797Z" fill="#2B63C3"/>
<path d="M14.9922 20.5117V22.2371C14.9922 22.5023 15.0975 22.7566 15.2851 22.9442C15.4726 23.1317 15.727 23.2371 15.9922 23.2371C16.2574 23.2371 16.5118 23.1317 16.6993 22.9442C16.8868 22.7566 16.9922 22.5023 16.9922 22.2371V20.5117C16.9922 20.2465 16.8868 19.9921 16.6993 19.8046C16.5118 19.6171 16.2574 19.5117 15.9922 19.5117C15.727 19.5117 15.4726 19.6171 15.2851 19.8046C15.0975 19.9921 14.9922 20.2465 14.9922 20.5117Z" fill="#2B63C3"/>
<path fill-rule="evenodd" clip-rule="evenodd" d="M13.616 19.4076C13.5519 19.642 13.4046 19.8451 13.2016 19.9788C12.9987 20.1126 12.754 20.1678 12.5133 20.1343C9.1133 19.6596 5.8613 18.4543 3.1173 16.6409C2.97896 16.5501 2.86543 16.4262 2.78697 16.2805C2.70852 16.1348 2.66762 15.9718 2.66797 15.8063V11.1863C2.66797 8.38628 4.95064 6.10894 7.7573 6.10894H10.38C10.5007 5.16063 10.9624 4.28864 11.6787 3.65567C12.3951 3.02269 13.3173 2.67197 14.2733 2.66895H17.716C18.6719 2.67197 19.5941 3.02269 20.3105 3.65567C21.0269 4.28864 21.4886 5.16063 21.6093 6.10894H24.2453C25.5912 6.11071 26.8815 6.64625 27.8331 7.59809C28.7847 8.54993 29.3199 9.84035 29.3213 11.1863V15.8076C29.3211 15.9729 29.2801 16.1355 29.2019 16.2811C29.1238 16.4267 29.0109 16.5508 28.8733 16.6423C26.124 18.4623 22.86 19.6743 19.436 20.1489C19.1923 20.1828 18.9447 20.1256 18.7405 19.9883C18.5364 19.8511 18.3899 19.6434 18.3293 19.4049C18.1955 18.8864 17.8926 18.4274 17.4685 18.1004C17.0445 17.7734 16.5235 17.5972 15.988 17.5996C14.8653 17.5996 13.912 18.3263 13.616 19.4089V19.4076ZM17.716 4.66628H14.2733C13.376 4.66628 12.6266 5.27961 12.4026 6.10761H19.5853C19.4752 5.69558 19.2324 5.33128 18.8945 5.071C18.5567 4.81073 18.1425 4.66763 17.716 4.66628Z" fill="#2B63C3"/>
</svg>
