<svg width="65" height="64" viewBox="0 0 65 64" fill="none" xmlns="http://www.w3.org/2000/svg">
<rect x="0.766247" y="0.434216" width="63.1316" height="63.1316" rx="15.5658" stroke="#4F5569" stroke-opacity="0.4" stroke-width="0.868432"/>
<path d="M45.3337 32.5992C45.0337 32.0992 44.6837 31.6492 44.3337 31.2492C43.8337 30.6492 43.3837 30.0992 43.1837 29.4992C43.0837 29.2492 43.1337 28.9992 43.2837 28.4992C43.3837 28.0492 43.5337 27.4992 43.4837 26.8492C43.3837 25.8992 43.1837 25.0492 42.8837 24.2492C42.0337 21.8992 40.4837 19.9492 38.4837 18.6992C36.8837 17.6992 35.0337 17.0992 33.0337 16.9492V18.9492C36.7837 19.2492 39.7337 21.4492 40.9837 24.8992C41.2337 25.5492 41.3837 26.2492 41.4837 27.0492C41.5337 27.2992 41.4337 27.5992 41.3337 27.9492C41.1837 28.5492 40.9837 29.2492 41.2837 30.0992C41.5837 31.0992 42.2337 31.8492 42.7837 32.4992C43.0837 32.8992 43.3837 33.2492 43.5837 33.5992C43.6337 33.6492 43.6337 33.6992 43.6337 33.7492C43.5837 33.8492 43.4337 34.0492 43.2337 34.1492C43.1337 34.1992 43.0837 34.1992 42.9837 34.2492H42.8337C42.3837 34.2492 41.9837 34.4992 41.7837 34.8992C41.7837 34.9492 41.7337 34.9992 41.7337 35.0492H42.4837C43.1837 35.0492 43.8337 35.3992 44.3337 35.8992C44.9337 35.5492 45.4337 34.9992 45.6337 34.3492C45.7837 33.7992 45.6837 33.1492 45.3337 32.5992ZM42.4337 40.1492H41.4337V40.3992C41.4337 40.7492 41.2837 41.0492 41.0337 41.2992C40.7837 41.5492 40.4337 41.7492 39.9837 41.7992C39.4837 41.8992 38.9337 41.9492 38.3837 41.9992C38.1337 41.9992 37.9337 42.0492 37.7337 42.0492C37.3837 42.0992 36.9837 42.0992 36.5837 42.1492C35.8337 42.1992 35.2337 42.6992 35.1337 43.4992C35.0837 43.6492 35.0337 43.8992 34.9837 44.1992V44.2992L34.8337 45.0492L25.1837 43.1492C25.1337 41.2992 24.8337 37.7992 23.5337 35.2492C23.2837 34.7492 22.9837 34.2492 22.7337 33.7992C21.9337 32.3992 21.1837 31.0492 21.0337 29.5992C20.7837 26.9992 21.7337 24.2992 23.5337 22.4492C24.6837 21.2992 26.1337 20.3492 27.6837 19.7492L27.7337 19.3492C27.7337 19.0492 27.7837 18.7492 27.7837 18.3992C27.7837 18.0992 27.8337 17.7992 27.8337 17.5492C27.4337 17.6492 27.0837 17.7992 26.6837 17.9492C24.9337 18.6492 23.3337 19.7492 22.0337 21.0492C19.7837 23.3492 18.6337 26.6492 18.9337 29.8492C19.1337 31.7492 20.0337 33.3492 20.8837 34.8492C21.1337 35.2992 21.3837 35.7492 21.6337 36.2492C22.7337 38.4492 22.9837 41.5992 23.0337 43.2992C23.0837 44.2492 23.7337 45.0492 24.6837 45.1992L34.3337 47.0992C34.4837 47.1492 34.5837 47.1492 34.7337 47.1492C35.7337 47.1492 36.5337 46.4492 36.7337 45.4992C36.7837 45.1992 36.8337 44.8992 36.8837 44.6492L36.9837 44.1992C37.2837 44.1992 37.5837 44.1492 37.8337 44.0992C38.0337 44.0992 38.2337 44.0492 38.4337 44.0492C38.9837 43.9992 39.5837 43.9492 40.1837 43.8492C41.0837 43.6992 41.8337 43.3492 42.3837 42.7492C42.9837 42.0992 43.3337 41.3492 43.3837 40.4992V39.9492C43.1337 40.0992 42.7837 40.1492 42.4337 40.1492Z" fill="#4A5168"/>
<path d="M43.9811 37.0492C43.7311 36.4492 43.1811 35.9992 42.4811 35.9492L41.8311 35.9992H41.1311C40.5811 35.9992 40.0811 36.2492 39.7811 36.6492C37.2811 36.1992 35.1311 35.1992 33.3311 33.6492C34.0311 32.9492 34.4811 31.9992 34.5311 30.9992V30.8492C34.5311 30.4492 34.4811 29.9992 34.4311 29.5992C34.2811 28.8492 33.9311 28.1492 33.5311 27.5492C32.2811 25.6492 32.1311 23.6492 32.1311 21.4492C32.1311 20.7992 32.1311 19.8992 32.1811 18.9992C32.1811 18.2492 32.2311 17.5492 32.1811 16.9492H32.1311C31.0311 16.9492 29.9311 17.0992 28.8311 17.3492C28.7811 18.0492 28.7311 18.8992 28.6811 19.4992C28.6811 19.6492 28.6811 19.7992 28.6311 19.9492C28.5811 20.8492 28.5811 21.6992 28.4311 22.5992C28.1811 24.4992 27.7311 26.3492 26.9811 28.1492C26.1811 30.1992 26.4311 32.9492 28.3811 34.1992C29.0311 34.5992 29.7311 34.8492 30.5811 34.8492C31.1811 34.8492 31.6811 34.7492 32.1811 34.4992C34.1811 36.2992 36.6311 37.4992 39.4811 38.0492C39.6311 38.7992 40.2811 39.3492 41.0811 39.3492H42.4311C42.8811 39.3492 43.3311 39.1492 43.6311 38.8492C43.9311 38.5492 44.0811 38.1492 44.0811 37.7492C44.0811 37.4492 44.0311 37.2492 43.9811 37.0492ZM30.5811 33.3992C29.1311 33.3992 27.9811 32.2492 27.9811 30.7992C27.9811 29.3492 29.1311 28.1992 30.5811 28.1992C32.0311 28.1992 33.1811 29.3492 33.1811 30.7992C33.1811 32.2492 32.0311 33.3992 30.5811 33.3992Z" fill="#2B63C3"/>
</svg>
