<svg width="64" height="64" viewBox="0 0 64 64" fill="none" xmlns="http://www.w3.org/2000/svg">
<rect x="0.434216" y="0.434216" width="63.1316" height="63.1316" rx="15.5658" stroke="#4F5569" stroke-opacity="0.4" stroke-width="0.868432"/>
<path d="M42.1023 17.7997C37.1523 17.8497 33.5023 17.7997 28.5523 17.7997C27.4023 17.7997 26.3523 18.1997 25.5023 18.8497C24.3523 19.6997 23.6023 21.0997 23.5523 22.6497C23.5023 24.4997 23.4523 26.3497 24.2023 28.1497C24.5523 28.9497 25.0023 29.7497 25.5023 30.3997C26.6523 31.8997 28.3023 33.0497 30.1523 33.5997C32.2523 34.1997 33.3023 33.9497 35.4523 33.9497H42.0523C42.2023 33.9497 42.4023 34.0497 42.5523 34.1497L42.6523 34.2497C43.7023 35.2997 45.6023 37.1997 46.6023 38.1497C46.8023 38.3497 47.2023 38.1997 47.2023 37.8997V22.7497C47.1023 19.7497 44.6023 17.7497 42.1023 17.7997ZM45.2523 34.2497L43.9023 32.8997L43.8023 32.7997C43.3523 32.3497 42.6523 32.0497 42.0023 32.0497H35.4023C34.8023 32.0497 34.3023 32.0497 33.8523 32.0997C32.6523 32.1497 31.9023 32.1497 30.6523 31.7997C29.2523 31.3997 27.9523 30.4497 26.9523 29.2497C26.5023 28.6997 26.1523 28.0997 25.9023 27.4497C25.3023 25.9997 25.3523 24.3997 25.4023 22.7497C25.4523 21.7997 25.9023 20.9497 26.6523 20.3997C27.2023 19.9997 27.9023 19.7497 28.6023 19.7497H33.0023C35.9523 19.7497 38.7523 19.7497 42.1523 19.6997H42.2023C43.0023 19.6997 43.8023 20.0497 44.4023 20.5997C44.8023 20.9997 45.3023 21.6997 45.3023 22.7497V34.2497H45.2523Z" fill="#4A5168"/>
<path d="M38.15 35.8008V43.1008L35.85 40.8008L35.75 40.7008C35.45 40.4008 35 40.2008 34.6 40.2008H28.65C28.15 40.2008 27.7 40.2008 27.3 40.2508C26.2 40.3008 25.45 40.3008 24.2 39.9508C22.85 39.5508 21.5 38.6508 20.55 37.4508C20.1 36.9008 19.75 36.3008 19.5 35.6508C18.9 34.2508 18.95 32.6508 19 31.1508C19.05 30.1008 19.55 29.1508 20.35 28.5508C20.85 28.1508 21.45 27.9508 22.1 27.8508C21.9 27.1508 21.8 26.4508 21.7 25.8008C20.75 25.9508 19.85 26.3008 19.1 26.9008C17.75 27.9008 16.95 29.4508 16.9 31.1008C16.85 32.7508 16.8 34.6508 17.55 36.4508C17.9 37.2508 18.35 38.0508 18.9 38.7508C20.1 40.3008 21.8 41.4508 23.6 41.9508C25.15 42.4008 26.15 42.3508 27.35 42.3008C27.75 42.3008 28.15 42.2508 28.65 42.2508H34.4C35.05 42.9008 36.1 43.9008 36.9 44.7508L37.9 45.7508C38.15 46.0008 38.5 46.1508 38.85 46.1508C39.05 46.1508 39.2 46.1008 39.35 46.0508C39.85 45.8508 40.2 45.3508 40.2 44.8008V35.7508C39.5 35.8008 38.85 35.8008 38.15 35.8008Z" fill="#2B63C3"/>
<path d="M30.0016 26.9504C30.6367 26.9504 31.1516 26.4355 31.1516 25.8004C31.1516 25.1653 30.6367 24.6504 30.0016 24.6504C29.3664 24.6504 28.8516 25.1653 28.8516 25.8004C28.8516 26.4355 29.3664 26.9504 30.0016 26.9504Z" fill="#2B63C3"/>
<path d="M35.3492 26.9504C35.9843 26.9504 36.4992 26.4355 36.4992 25.8004C36.4992 25.1653 35.9843 24.6504 35.3492 24.6504C34.7141 24.6504 34.1992 25.1653 34.1992 25.8004C34.1992 26.4355 34.7141 26.9504 35.3492 26.9504Z" fill="#2B63C3"/>
<path d="M40.7008 26.9504C41.3359 26.9504 41.8508 26.4355 41.8508 25.8004C41.8508 25.1653 41.3359 24.6504 40.7008 24.6504C40.0657 24.6504 39.5508 25.1653 39.5508 25.8004C39.5508 26.4355 40.0657 26.9504 40.7008 26.9504Z" fill="#2B63C3"/>
</svg>
