<svg width="65" height="64" viewBox="0 0 65 64" fill="none" xmlns="http://www.w3.org/2000/svg">
<rect x="1.10218" y="0.434216" width="63.1316" height="63.1316" rx="15.5658" stroke="#4F5569" stroke-opacity="0.4" stroke-width="0.868432"/>
<path d="M34.9695 22.9492C34.8695 22.0992 34.5195 21.4992 33.7195 21.1492C33.3695 20.9992 32.9695 20.9492 32.6195 20.9492C32.2195 20.9492 31.8695 20.9992 31.5195 21.1492C30.7195 21.4992 30.3195 22.0992 30.2695 22.9492V23.2992C30.2695 24.1492 30.4695 24.9992 30.8195 25.7992C30.9695 26.1992 31.2695 26.5492 31.5695 26.8492C31.8695 27.1492 32.2695 27.2992 32.6695 27.2992C33.0695 27.2992 33.4695 27.1492 33.7695 26.8492C34.0695 26.5492 34.3195 26.1992 34.5195 25.7992C34.8695 24.9992 35.0695 24.1492 35.0695 23.2992C34.9695 23.1992 34.9695 23.0992 34.9695 22.9492ZM38.3695 31.4992C38.3695 30.8492 38.3195 30.2492 38.1195 29.6492C38.0695 29.4992 38.0195 29.2992 37.8695 29.1492C37.7695 28.9992 37.5695 28.8492 37.4195 28.7992C37.0195 28.6992 36.6195 28.5992 36.1695 28.4992C35.5695 28.3492 34.9195 28.1992 34.3195 28.0492H34.1695V28.1492C34.0695 28.5492 33.9695 28.9492 33.8195 29.3492C33.6695 29.7992 33.5195 30.2992 33.3195 30.7492C33.3195 30.7992 33.2695 30.8492 33.2695 30.8992C33.2195 30.6992 33.2195 30.3992 33.1695 30.1492C33.1195 29.6492 33.0195 29.1492 33.0195 29.0992C33.0695 29.0492 33.0695 28.9992 33.0695 28.9492C33.0695 28.8992 33.1195 28.8992 33.1195 28.8492V28.7992C33.1195 28.7492 33.1695 28.6992 33.1695 28.6492C33.1695 28.5992 33.1695 28.5492 33.1195 28.4992V28.4492C33.1195 28.4492 33.1195 28.3992 33.0695 28.3992H32.9695H32.2195H32.1195C32.1195 28.3992 32.0695 28.3992 32.0195 28.4492C31.9695 28.4992 31.9695 28.4992 31.9695 28.5492V28.5992C31.9695 28.6492 31.9695 28.6992 32.0195 28.7492V28.7992C32.0195 28.8492 32.0695 28.8492 32.0695 28.8992C32.1195 28.9492 32.1195 28.9992 32.1695 29.0992C32.1695 29.0992 32.1695 29.1992 32.1195 29.3992C32.0695 29.7992 31.9695 30.4992 31.9195 30.8992C31.8695 30.8492 31.8695 30.7992 31.8695 30.7492C31.7195 30.2992 31.5195 29.7992 31.3695 29.3492C31.2695 28.9492 31.1195 28.5492 31.0195 28.1492V28.0492H30.8695C30.3195 28.1992 29.7695 28.3492 29.2195 28.4492C28.7195 28.5492 28.2695 28.6992 27.7695 28.7992C27.6195 28.8492 27.4695 28.9992 27.3195 29.0992V29.1492C27.2195 29.2992 27.1695 29.4492 27.0695 29.6492C26.8695 30.1992 26.8695 30.7492 26.8195 31.2992V31.4992C26.8195 31.8992 26.7695 31.7992 27.1195 31.9992C27.2195 32.0492 27.3195 32.0992 27.4195 32.0992C28.1195 32.3492 28.8195 32.4992 29.5695 32.5992C30.2695 32.6992 30.9695 32.7492 31.7195 32.7992H33.3695C34.5195 32.7492 35.6195 32.6492 36.7195 32.3992C37.0195 32.3492 37.3195 32.2492 37.6195 32.1492C37.7195 32.0992 37.8195 32.0992 37.9195 32.0492C38.4195 31.7992 38.3695 31.8992 38.3695 31.4992ZM24.7695 35.4992H40.5695V36.4992H24.7695V35.4992ZM24.7695 38.7492H40.5695V39.7492H24.7695V38.7492ZM24.7695 42.0492H40.5695V43.0492H24.7695V42.0492Z" fill="#2B63C3"/>
<path d="M42.218 16.5508H23.118C21.218 16.5508 19.668 18.1008 19.668 20.0008V44.0008C19.668 45.9008 21.218 47.4508 23.118 47.4508H42.168C44.068 47.4508 45.618 45.9008 45.618 44.0008V20.0008C45.668 18.1008 44.118 16.5508 42.218 16.5508ZM43.868 44.0008C43.868 44.9508 43.118 45.7008 42.168 45.7008H23.118C22.168 45.7008 21.418 44.9508 21.418 44.0008V20.0008C21.418 19.0508 22.168 18.3008 23.118 18.3008H42.168C43.118 18.3008 43.868 19.0508 43.868 20.0008V44.0008Z" fill="#2D3E4F"/>
</svg>
