<svg width="24" height="24" viewBox="0 0 24 24" fill="none" xmlns="http://www.w3.org/2000/svg">
<path d="M20.8219 1.92188H3.02187C2.73014 1.92188 2.45035 2.03777 2.24406 2.24406C2.03777 2.45035 1.92188 2.73014 1.92188 3.02187V20.8219C1.92188 20.9663 1.95033 21.1094 2.00561 21.2428C2.06089 21.3763 2.14191 21.4975 2.24406 21.5997C2.3462 21.7018 2.46747 21.7829 2.60092 21.8381C2.73438 21.8934 2.87742 21.9219 3.02187 21.9219H12.6019V14.1719H10.0019V11.1719H12.6019V8.92188C12.548 8.39363 12.6104 7.86 12.7846 7.35841C12.9588 6.85682 13.2406 6.39942 13.6103 6.01829C13.98 5.63715 14.4286 5.34152 14.9247 5.15211C15.4208 4.96271 15.9522 4.88413 16.4819 4.92188C17.2602 4.91709 18.0382 4.95715 18.8119 5.04187V7.74188H17.2219C15.9619 7.74188 15.7219 8.34188 15.7219 9.21187V11.1419H18.7219L18.3319 14.1419H15.7219V21.9219H20.8219C20.9663 21.9219 21.1094 21.8934 21.2428 21.8381C21.3763 21.7829 21.4975 21.7018 21.5997 21.5997C21.7018 21.4975 21.7829 21.3763 21.8381 21.2428C21.8934 21.1094 21.9219 20.9663 21.9219 20.8219V3.02187C21.9219 2.87742 21.8934 2.73438 21.8381 2.60092C21.7829 2.46747 21.7018 2.3462 21.5997 2.24406C21.4975 2.14191 21.3763 2.06089 21.2428 2.00561C21.1094 1.95033 20.9663 1.92187 20.8219 1.92188Z" fill="#4A5168"/>
</svg>
