<svg width="24" height="24" viewBox="0 0 24 24" fill="none" xmlns="http://www.w3.org/2000/svg">
<path d="M18.6913 21.8419H5.54611C3.81045 21.8419 2.39844 20.3947 2.39844 18.6156V5.14816C2.39844 3.36907 3.81045 1.92188 5.54611 1.92188H18.6913C20.4264 1.92188 21.8384 3.36907 21.8384 5.14816V18.6161C21.8384 20.3952 20.4264 21.8419 18.6913 21.8419ZM8.92159 6.04492H15.4447C16.1101 6.04492 16.7483 6.31642 17.2188 6.79968C17.6893 7.28295 17.9536 7.93839 17.9536 8.62183V15.3218C17.9536 16.0052 17.6893 16.6607 17.2188 17.1439C16.7483 17.6272 16.1101 17.8987 15.4447 17.8987H8.92159C8.25619 17.8987 7.61804 17.6272 7.14753 17.1439C6.67702 16.6607 6.41269 16.0052 6.41269 15.3218V8.62183C6.41269 7.93839 6.67702 7.28295 7.14753 6.79968C7.61804 6.31642 8.25619 6.04492 8.92159 6.04492ZM8.92159 4.49878C7.85695 4.49878 6.83591 4.93317 6.08309 5.70639C5.33027 6.47962 4.90734 7.52833 4.90734 8.62183V15.3218C4.90734 16.4153 5.33027 17.464 6.08309 18.2372C6.83591 19.0104 7.85695 19.4448 8.92159 19.4448H15.4447C15.9719 19.4448 16.4939 19.3382 16.9809 19.131C17.468 18.9238 17.9105 18.6201 18.2832 18.2372C18.656 17.8544 18.9517 17.3998 19.1534 16.8996C19.3552 16.3994 19.459 15.8632 19.459 15.3218V8.62183C19.459 7.52833 19.0361 6.47962 18.2832 5.70639C17.5304 4.93317 16.5094 4.49878 15.4447 4.49878H8.92159ZM12.1832 15.5795C13.1147 15.5795 14.0081 15.1994 14.6669 14.5228C15.3256 13.8462 15.6956 12.9286 15.6956 11.9718C15.6956 11.015 15.3256 10.0974 14.6669 9.4208C14.0081 8.74423 13.1147 8.36414 12.1832 8.36414C11.2516 8.36414 10.3582 8.74423 9.69948 9.4208C9.04076 10.0974 8.6707 11.015 8.6707 11.9718C8.6707 12.9286 9.04076 13.8462 9.69948 14.5228C10.3582 15.1994 11.2516 15.5795 12.1832 15.5795ZM12.1832 14.0333C11.6508 14.0333 11.1403 13.8161 10.7639 13.4295C10.3875 13.0429 10.176 12.5186 10.176 11.9718C10.176 11.4251 10.3875 10.9007 10.7639 10.5141C11.1403 10.1275 11.6508 9.91028 12.1832 9.91028C12.7155 9.91028 13.226 10.1275 13.6024 10.5141C13.9788 10.9007 14.1903 11.4251 14.1903 11.9718C14.1903 12.5186 13.9788 13.0429 13.6024 13.4295C13.226 13.8161 12.7155 14.0333 12.1832 14.0333ZM15.9465 9.13721C16.2127 9.13721 16.4679 9.02861 16.6561 8.83531C16.8444 8.642 16.9501 8.37983 16.9501 8.10645C16.9501 7.83308 16.8444 7.5709 16.6561 7.37759C16.4679 7.18429 16.2127 7.07569 15.9465 7.07569C15.6804 7.07569 15.4251 7.18429 15.2369 7.37759C15.0487 7.5709 14.943 7.83308 14.943 8.10645C14.943 8.37983 15.0487 8.642 15.2369 8.83531C15.4251 9.02861 15.6804 9.13721 15.9465 9.13721Z" fill="#4A5168"/>
</svg>
