<svg width="24" height="24" viewBox="0 0 24 24" fill="none" xmlns="http://www.w3.org/2000/svg">
<path d="M20.5702 1.92201H3.63016C3.43973 1.91937 3.25066 1.95426 3.07372 2.0247C2.89679 2.09513 2.73546 2.19974 2.59895 2.33253C2.46245 2.46532 2.35344 2.6237 2.27815 2.79862C2.20286 2.97355 2.16276 3.16159 2.16016 3.35201V20.492C2.16276 20.6824 2.20286 20.8705 2.27815 21.0454C2.35344 21.2203 2.46245 21.3787 2.59895 21.5115C2.73546 21.6443 2.89679 21.7489 3.07372 21.8193C3.25066 21.8898 3.43973 21.9247 3.63016 21.922H20.5702C20.7606 21.9247 20.9497 21.8898 21.1266 21.8193C21.3035 21.7489 21.4649 21.6443 21.6014 21.5115C21.7379 21.3787 21.8469 21.2203 21.9222 21.0454C21.9975 20.8705 22.0375 20.6824 22.0402 20.492V3.35201C22.0375 3.16159 21.9975 2.97355 21.9222 2.79862C21.8469 2.6237 21.7379 2.46532 21.6014 2.33253C21.4649 2.19974 21.3035 2.09513 21.1266 2.0247C20.9497 1.95426 20.7606 1.91937 20.5702 1.92201ZM8.19016 18.662H5.19016V9.66201H8.19016V18.662ZM6.69016 8.40201C6.27642 8.40201 5.87963 8.23766 5.58707 7.9451C5.29451 7.65254 5.13016 7.25575 5.13016 6.84201C5.13016 6.42828 5.29451 6.03149 5.58707 5.73893C5.87963 5.44637 6.27642 5.28201 6.69016 5.28201C6.90985 5.2571 7.13233 5.27887 7.34303 5.3459C7.55373 5.41293 7.7479 5.5237 7.91281 5.67098C8.07773 5.81825 8.20968 5.99869 8.30003 6.2005C8.39037 6.4023 8.43707 6.62091 8.43707 6.84201C8.43707 7.06312 8.39037 7.28173 8.30003 7.48353C8.20968 7.68534 8.07773 7.86578 7.91281 8.01305C7.7479 8.16033 7.55373 8.2711 7.34303 8.33813C7.13233 8.40516 6.90985 8.42693 6.69016 8.40201ZM19.0102 18.662H16.0102V13.832C16.0102 12.622 15.5802 11.832 14.4902 11.832C14.1528 11.8345 13.8243 11.9403 13.549 12.1352C13.2736 12.3301 13.0646 12.6047 12.9502 12.922C12.8719 13.1571 12.838 13.4046 12.8502 13.652V18.652H9.85016C9.85016 18.652 9.85016 10.472 9.85016 9.65201H12.8502V10.922C13.1227 10.4491 13.5191 10.0595 13.9966 9.79522C14.4741 9.5309 15.0147 9.40187 15.5602 9.42201C17.5602 9.42201 19.0102 10.712 19.0102 13.482V18.662Z" fill="#4A5168"/>
</svg>
