<svg width="32" height="32" viewBox="0 0 32 32" fill="none" xmlns="http://www.w3.org/2000/svg">
<path d="M11.3768 3.91602C14.2899 2.22336 17.8707 2.25294 20.7565 3.99352C23.6139 5.76954 25.3506 8.93923 25.3345 12.3489C25.2679 15.7362 23.4057 18.9203 21.0779 21.3818C19.7344 22.8089 18.2315 24.0708 16.5998 25.1417C16.4317 25.2389 16.2476 25.3039 16.0566 25.3337C15.8728 25.3258 15.6937 25.2715 15.5356 25.1756C13.0445 23.5664 10.8591 21.5124 9.08441 19.1123C7.59942 17.1088 6.75575 14.6883 6.66797 12.1796L6.67462 11.8146C6.79586 8.53985 8.5677 5.54823 11.3768 3.91602ZM17.211 9.38002C16.0267 8.87664 14.6614 9.15013 13.7524 10.0728C12.8434 10.9955 12.5702 12.3853 13.0602 13.5934C13.5502 14.8014 14.7069 15.5894 15.9901 15.5895C16.8308 15.5955 17.6389 15.2588 18.2344 14.6543C18.8299 14.0498 19.1633 13.2278 19.1603 12.3715C19.1648 11.0644 18.3952 9.88341 17.211 9.38002Z" fill="#2B63C3"/>
<path opacity="0.4" d="M16.0026 29.3337C19.6845 29.3337 22.6693 28.7367 22.6693 28.0003C22.6693 27.2639 19.6845 26.667 16.0026 26.667C12.3207 26.667 9.33594 27.2639 9.33594 28.0003C9.33594 28.7367 12.3207 29.3337 16.0026 29.3337Z" fill="#2B63C3"/>
</svg>
