<svg width="133" height="132" viewBox="0 0 133 132" fill="none" xmlns="http://www.w3.org/2000/svg">
<path d="M60.246 119.918L58.4771 130.751L53.0987 129.743C52.3334 129.599 51.7223 129.338 51.2655 128.96C50.8087 128.581 50.4957 128.116 50.3266 127.563C50.1453 127.02 50.1105 126.405 50.2222 125.721C50.334 125.037 50.5691 124.457 50.9276 123.982C51.2845 123.517 51.7482 123.192 52.3188 123.006C52.8789 122.818 53.5312 122.794 54.2756 122.933L57.8297 123.599L58.4847 119.588L60.246 119.918ZM57.5822 125.115L54.1067 124.464C53.551 124.36 53.0884 124.446 52.7189 124.724C52.3389 125 52.0999 125.438 52.0019 126.038C51.9366 126.438 51.9497 126.788 52.0413 127.087C52.1312 127.397 52.2951 127.65 52.5332 127.847C52.7712 128.043 53.0894 128.179 53.4878 128.253L56.9633 128.905L57.5822 125.115Z" fill="white"/>
<path d="M45.2228 115.953C45.4622 116.071 45.7081 116.227 45.9605 116.422C46.213 116.618 46.4301 116.855 46.6118 117.134C46.784 117.408 46.8879 117.721 46.9236 118.07C46.955 118.43 46.8742 118.835 46.6811 119.286C46.4544 119.816 46.1479 120.194 45.7617 120.419C45.3754 120.645 44.9249 120.75 44.4101 120.734C43.8953 120.719 43.3243 120.604 42.6972 120.391C42.0605 120.173 41.3879 119.891 40.6794 119.542L40.352 120.307C40.2428 120.562 40.1893 120.809 40.1916 121.047C40.1842 121.281 40.2675 121.506 40.4415 121.722C40.606 121.933 40.8893 122.138 41.2914 122.335C41.6935 122.533 42.0325 122.634 42.3084 122.639C42.5706 122.649 42.7832 122.599 42.9461 122.49C43.0952 122.385 43.2075 122.244 43.2831 122.068L43.3775 121.847L44.8136 122.553C44.8022 122.606 44.786 122.658 44.765 122.707C44.744 122.756 44.7188 122.815 44.6895 122.883C44.4922 123.344 44.2019 123.67 43.8186 123.862C43.4216 124.058 42.9576 124.127 42.4267 124.068C41.8958 124.009 41.3288 123.831 40.7257 123.535C40.0746 123.215 39.5757 122.851 39.2288 122.444C38.8682 122.041 38.6533 121.609 38.5843 121.148C38.5152 120.687 38.5877 120.206 38.8018 119.706L40.483 115.779C40.5628 115.592 40.5763 115.439 40.5238 115.318C40.4616 115.193 40.3683 115.099 40.2438 115.038L39.7269 114.784L40.1676 113.755C40.3035 113.762 40.4681 113.784 40.6614 113.819C40.8547 113.855 41.0663 113.929 41.296 114.042C41.5545 114.169 41.7537 114.326 41.8937 114.514C42.0282 114.686 42.1173 114.884 42.1608 115.108C42.1905 115.336 42.1784 115.567 42.1243 115.802L42.2105 115.844C42.4794 115.703 42.776 115.606 43.1005 115.551C43.4112 115.502 43.7434 115.511 44.0972 115.578C44.4551 115.635 44.8303 115.76 45.2228 115.953ZM44.2648 117.014C43.9681 116.868 43.6763 116.778 43.3896 116.744C43.0891 116.715 42.8123 116.739 42.559 116.816C42.3015 116.904 42.0698 117.039 41.8637 117.223C41.6535 117.416 41.4875 117.655 41.3657 117.939L41.1453 118.454C41.8059 118.779 42.4019 119.024 42.9334 119.19C43.4648 119.356 43.9155 119.399 44.2855 119.32C44.6513 119.251 44.9139 119.03 45.0735 118.657C45.17 118.431 45.204 118.217 45.1754 118.013C45.1427 117.819 45.0473 117.635 44.8894 117.463C44.7315 117.29 44.5233 117.141 44.2648 117.014Z" fill="white"/>
<path d="M36.0741 111.079L31.3214 118.025L30.2392 117.175L30.894 115.964L30.8185 115.904C30.5924 116.065 30.3543 116.196 30.1044 116.298C29.846 116.392 29.5782 116.426 29.3009 116.397C29.0152 116.363 28.7298 116.233 28.4445 116.009C28.3103 115.904 28.2019 115.798 28.1193 115.693C28.0283 115.581 27.9595 115.493 27.9128 115.429L28.7983 114.135L29.2387 114.481C29.5072 114.692 29.7764 114.836 30.0464 114.912C30.3079 114.982 30.5703 114.985 30.8334 114.921C31.082 114.859 31.3243 114.732 31.56 114.538C31.7874 114.337 32.0065 114.083 32.2174 113.775L34.7654 110.051L36.0741 111.079Z" fill="white"/>
<path d="M28.578 104.222C28.9068 104.572 29.1046 104.914 29.1713 105.249C29.2235 105.585 29.1919 105.9 29.0765 106.197C28.9466 106.494 28.7692 106.764 28.5444 107.006L24.9446 110.891L25.668 111.66L24.7327 112.669L23.9874 111.876L22.1804 113.38L21.2707 112.413L22.8694 110.688L21.8282 109.58L22.7635 108.571L23.8047 109.678L27.274 105.935C27.4408 105.755 27.5311 105.579 27.5451 105.407C27.559 105.236 27.482 105.061 27.3139 104.882L26.744 104.276L27.5053 103.454C27.6073 103.501 27.724 103.57 27.8554 103.664C27.9867 103.741 28.1144 103.83 28.2385 103.931C28.3699 104.024 28.483 104.121 28.578 104.222Z" fill="white"/>
<path d="M25.0275 100.79L18.2004 105.711L17.4685 104.546L18.3653 103.722L18.3057 103.628C17.947 103.637 17.6117 103.583 17.2997 103.467C16.9878 103.351 16.7006 103.184 16.4382 102.966C16.1701 102.739 15.9283 102.454 15.7127 102.111C15.429 101.66 15.2572 101.206 15.1973 100.751C15.1288 100.301 15.2037 99.8602 15.422 99.4272C15.6347 98.9853 16.0265 98.5584 16.5976 98.1468L21.2572 94.7879L22.1423 96.1969L17.6904 99.4061C17.4308 99.5933 17.2372 99.7853 17.1095 99.9823C16.9762 100.17 16.8973 100.365 16.8729 100.566C16.8485 100.768 16.8686 100.97 16.9331 101.172C16.9977 101.375 17.0952 101.58 17.2257 101.788C17.43 102.113 17.6951 102.355 18.0211 102.514C18.3327 102.67 18.6737 102.732 19.0441 102.702C19.4144 102.671 19.7813 102.525 20.1447 102.263L24.1424 99.3809L25.0275 100.79Z" fill="white"/>
<path d="M17.2351 85.84C17.5062 86.6604 17.5891 87.4039 17.4839 88.0706C17.3654 88.731 17.0488 89.3183 16.5341 89.8326C16.0194 90.3468 15.2933 90.7817 14.3557 91.1372C13.4082 91.4965 12.5884 91.6477 11.8963 91.591C11.1942 91.5381 10.6065 91.288 10.1332 90.8406C9.64992 90.397 9.27108 89.76 8.99668 88.9295C8.7457 88.1698 8.68117 87.482 8.80309 86.8659C8.91169 86.2435 9.21173 85.691 9.70321 85.2083C10.1947 84.7256 10.8793 84.3179 11.757 83.9851L12.3554 83.7582L14.2076 89.3641C14.7595 89.1321 15.1998 88.8683 15.5286 88.5727C15.8474 88.2808 16.0464 87.9489 16.1255 87.577C16.1914 87.1988 16.1456 86.7716 15.9884 86.2956C15.8913 86.0019 15.7694 85.7518 15.6226 85.5453C15.4659 85.3426 15.2909 85.1867 15.0977 85.0776C14.8946 84.9723 14.6782 84.9119 14.4486 84.8963C14.209 84.8846 13.9596 84.9279 13.7003 85.0262L13.1883 83.4766C13.657 83.2989 14.0977 83.223 14.5103 83.2489C14.9229 83.2748 15.3058 83.3974 15.6588 83.6169C15.9986 83.83 16.3036 84.1246 16.5738 84.5008C16.844 84.8771 17.0644 85.3234 17.2351 85.84ZM13.0606 89.7649L11.7655 85.8453C11.3765 85.9928 11.0674 86.1612 10.8382 86.3507C10.5957 86.5338 10.4165 86.7386 10.3004 86.9649C10.1844 87.1913 10.1283 87.4291 10.1321 87.6784C10.126 87.9314 10.1697 88.1998 10.2634 88.4833C10.404 88.9087 10.5992 89.245 10.8492 89.4921C11.0959 89.7291 11.4056 89.8681 11.7783 89.9091C12.141 89.954 12.5684 89.9059 13.0606 89.7649Z" fill="white"/>
<path d="M14.464 76.7367L6.14047 77.9812L5.9627 76.6168L7.28914 76.2729L7.27674 76.1777C7.0006 76.1219 6.73684 76.0373 6.48546 75.9239C6.2327 75.8 6.01663 75.6274 5.83724 75.4062C5.65647 75.1744 5.54266 74.8787 5.4958 74.5191C5.47375 74.3499 5.47028 74.1994 5.48539 74.0678C5.49913 73.9255 5.51172 73.8158 5.52317 73.7386L7.07393 73.5068L7.14629 74.0621C7.19039 74.4005 7.28241 74.6941 7.42236 74.9428C7.56092 75.1808 7.74742 75.374 7.98183 75.5223C8.20432 75.6616 8.46877 75.7514 8.77518 75.7919C9.08021 75.8217 9.41734 75.8091 9.78657 75.7539L14.249 75.0867L14.464 76.7367Z" fill="white"/>
<path d="M12.9949 60.8366L1.71069 60.7533L2.17104 58.9058L9.57698 59.0776C9.69753 59.0788 9.86039 59.0866 10.0656 59.1009C10.2707 59.1152 10.4849 59.1376 10.708 59.1682C10.9234 59.1854 11.1222 59.2034 11.3042 59.2222L11.3275 59.1291C11.2019 59.0599 11.0647 58.993 10.9161 58.9283C10.7674 58.8636 10.62 58.7937 10.4739 58.7187C10.3278 58.6437 10.1907 58.5767 10.0625 58.5179C9.93692 58.4487 9.83439 58.3972 9.75493 58.3634L3.2194 54.6985L3.77646 52.4628L11.1515 52.7588C11.272 52.76 11.4349 52.7678 11.64 52.7821C11.8452 52.7964 12.0593 52.8188 12.2825 52.8494C12.4979 52.8666 12.6966 52.8846 12.8787 52.9034L12.9019 52.8103C12.784 52.7544 12.652 52.6889 12.5059 52.6139C12.3598 52.5389 12.2189 52.4653 12.083 52.3932C11.9369 52.3181 11.8011 52.246 11.6755 52.1769C11.5525 52.0973 11.4423 52.0326 11.3449 51.9825L4.84417 48.1778L5.25423 46.5322L15.0761 52.484L14.5694 54.5178L7.07886 54.2886C6.91729 54.2756 6.73392 54.262 6.52875 54.2477C6.31332 54.2304 6.09789 54.2132 5.88246 54.1959C5.65935 54.1654 5.4683 54.1385 5.30931 54.1152L5.28997 54.1928C5.4489 54.2605 5.63218 54.3406 5.83981 54.4332C6.04745 54.5259 6.24866 54.6222 6.44346 54.7222C6.628 54.8194 6.78306 54.9025 6.90865 54.9717L13.5171 58.7407L12.9949 60.8366Z" fill="white"/>
<path d="M10.6684 35.7452L9.23181 34.8437L10.0302 33.3838L11.4667 34.2853L10.6684 35.7452ZM19.0303 40.9925L11.9017 36.5191L12.7 35.0592L19.8287 39.5325L19.0303 40.9925Z" fill="white"/>
<path d="M23.1894 34.1975C22.9085 34.5867 22.6171 34.8359 22.3151 34.9452C22.0112 35.0389 21.714 35.0416 21.4235 34.953C21.1311 34.849 20.8575 34.6916 20.6028 34.4807L16.5239 31.1028L15.9059 31.9592L14.8461 31.0815L15.4828 30.1993L13.8492 28.4526L14.6263 27.3757L16.4378 28.8759L17.3273 27.6433L18.3871 28.5209L17.4976 29.7535L21.4287 33.0089C21.6176 33.1653 21.7926 33.2411 21.9536 33.2363C22.1146 33.2314 22.2669 33.1295 22.4105 32.9306L22.8973 32.2559L23.7599 32.9703C23.7304 33.084 23.6811 33.2159 23.6121 33.3661C23.5576 33.5144 23.4917 33.6602 23.4145 33.8036C23.3456 33.9537 23.2705 34.085 23.1894 34.1975Z" fill="white"/>
<path d="M25.5984 29.8527L18.3025 20.8756L19.5194 19.7406L22.1431 22.9689L22.225 22.8925C22.2118 22.5557 22.2449 22.2337 22.3245 21.9266C22.3973 21.6113 22.5205 21.3073 22.694 21.0145C22.8675 20.7218 23.0946 20.4444 23.3754 20.1825C23.7655 19.8188 24.1692 19.5732 24.5867 19.4457C24.9975 19.31 25.416 19.3271 25.8422 19.4972C26.2762 19.6599 26.7152 20.0145 27.1592 20.5608L30.7819 25.0183L29.565 26.1533L26.1037 21.8944C25.9019 21.6461 25.7025 21.4682 25.5056 21.3609C25.3164 21.2463 25.1269 21.1902 24.937 21.1927C24.747 21.1952 24.5611 21.2449 24.3793 21.3418C24.1974 21.4386 24.0168 21.5707 23.8374 21.738C23.5566 21.9999 23.3563 22.3104 23.2367 22.6693C23.1248 23.021 23.103 23.3907 23.1711 23.7782C23.2392 24.1658 23.4179 24.5376 23.7072 24.8935L26.8153 28.7178L25.5984 29.8527Z" fill="white"/>
<path d="M44.7519 15.9167C43.8653 16.2249 43.0563 16.3482 42.3249 16.2866C41.5904 16.2147 40.9591 15.932 40.431 15.4386C39.9028 14.9452 39.4965 14.2289 39.212 13.2897L37.2218 6.72058L38.9144 6.13213L40.9185 12.7472C41.1814 13.6149 41.606 14.1895 42.1924 14.4708C42.7788 14.7521 43.485 14.7492 44.3112 14.462C45.1474 14.1713 45.7308 13.7258 46.0613 13.1258C46.4018 12.5222 46.4406 11.7865 46.1777 10.9188L44.1736 4.30371L45.8663 3.71525L47.8565 10.2844C48.141 11.2236 48.1997 12.0607 48.0327 12.7958C47.8757 13.5274 47.5146 14.1551 46.9494 14.6788C46.3912 15.1888 45.6587 15.6014 44.7519 15.9167Z" fill="white"/>
<path d="M58.6543 12.4092C58.0681 12.431 57.549 12.3863 57.0972 12.275C56.6453 12.1637 56.2666 12.0017 55.9608 11.7889C55.6551 11.5762 55.4173 11.3182 55.2474 11.0149C55.0878 10.7007 55.0017 10.3516 54.9893 9.96783C54.9876 9.91452 54.986 9.86655 54.9846 9.8239C54.9939 9.78086 54.998 9.74335 54.997 9.71137L56.6438 9.65006C56.6449 9.68205 56.6459 9.71403 56.647 9.74601C56.6476 9.76734 56.6485 9.79399 56.6495 9.82597C56.6603 10.1565 56.7595 10.4196 56.9473 10.6154C57.1347 10.8006 57.3791 10.9303 57.6803 11.0044C57.9918 11.0676 58.3288 11.0924 58.6912 11.0789C59.011 11.067 59.3029 11.0187 59.567 10.9342C59.8414 10.8386 60.0612 10.7077 60.2266 10.5414C60.4026 10.3747 60.4866 10.1688 60.4787 9.9236C60.4683 9.60377 60.3484 9.36273 60.1191 9.20048C59.8897 9.03824 59.5922 8.91589 59.2267 8.83343C58.8608 8.74031 58.4788 8.64245 58.0806 8.53986C57.7257 8.45701 57.3707 8.36882 57.0155 8.27531C56.6706 8.17073 56.3566 8.03298 56.0736 7.86206C55.7906 7.69114 55.5593 7.47026 55.3797 7.19942C55.2002 6.92858 55.1037 6.58527 55.0902 6.16949C55.0774 5.77503 55.1514 5.42537 55.3123 5.12051C55.4732 4.81566 55.6995 4.55639 55.9914 4.34272C56.294 4.12865 56.6514 3.96058 57.0636 3.83849C57.4865 3.71601 57.9485 3.64545 58.4495 3.6268C58.9718 3.60735 59.4374 3.64873 59.8462 3.75092C60.2547 3.84246 60.6009 3.98434 60.8846 4.17659C61.1789 4.36843 61.4054 4.6055 61.564 4.8878C61.7222 5.15943 61.8065 5.45516 61.8169 5.77499C61.8189 5.83896 61.8159 5.90846 61.8076 5.98348C61.8097 6.04745 61.8111 6.09009 61.8118 6.11141L60.1809 6.17212L60.1762 6.0282C60.1693 5.81498 60.1045 5.62526 59.9817 5.45905C59.8589 5.29283 59.6679 5.16118 59.4086 5.0641C59.16 4.96661 58.8278 4.92561 58.4121 4.94108C58.1349 4.9514 57.8906 4.98718 57.6792 5.04842C57.4674 5.099 57.2936 5.16951 57.1578 5.25996C57.022 5.35041 56.9187 5.45565 56.8478 5.5757C56.7877 5.69535 56.76 5.82981 56.7649 5.97906C56.7728 6.22427 56.8643 6.41299 57.0394 6.54524C57.2247 6.66642 57.4629 6.76964 57.7538 6.85487C58.0444 6.92945 58.3566 7.01389 58.6905 7.1082C59.0777 7.20053 59.4704 7.29799 59.8686 7.40058C60.2664 7.49251 60.6333 7.61761 60.9693 7.77589C61.3159 7.93376 61.5954 8.15819 61.8076 8.44916C62.0304 8.73973 62.15 9.13556 62.1662 9.63663C62.1811 10.0951 62.1035 10.4982 61.9333 10.8461C61.7632 11.194 61.5164 11.4807 61.1928 11.7062C60.8796 11.9207 60.5061 12.084 60.0722 12.1963C59.6386 12.3191 59.166 12.3901 58.6543 12.4092Z" fill="white"/>
<path d="M73.1212 12.0818L74.8901 1.24931L80.2684 2.25714C81.0338 2.40056 81.6449 2.66153 82.1017 3.04007C82.5585 3.4186 82.8715 3.8841 83.0406 4.43656C83.2219 4.98045 83.2567 5.59454 83.145 6.27881C83.0332 6.96308 82.7981 7.54285 82.4395 8.01814C82.0827 8.48289 81.619 8.80827 81.0484 8.99428C80.4882 9.18225 79.836 9.20649 79.0916 9.06701L75.5375 8.40101L74.8825 12.4119L73.1212 12.0818ZM75.785 6.88509L79.2605 7.53635C79.8162 7.64047 80.2788 7.55357 80.6483 7.27563C81.0283 6.99966 81.2673 6.56165 81.3653 5.9616C81.4306 5.56157 81.4175 5.21192 81.3259 4.91268C81.236 4.6029 81.0721 4.34977 80.834 4.15327C80.596 3.95677 80.2778 3.8212 79.8794 3.74654L76.4039 3.09528L75.785 6.88509Z" fill="white"/>
<path d="M88.1444 16.0468C87.905 15.9293 87.6591 15.7729 87.4067 15.5776C87.1542 15.3824 86.9371 15.1452 86.7553 14.866C86.5832 14.5916 86.4793 14.2794 86.4436 13.9296C86.4122 13.57 86.493 13.1646 86.6861 12.7136C86.9128 12.184 87.2192 11.8065 87.6055 11.5808C87.9918 11.3552 88.4423 11.2502 88.9571 11.2657C89.4719 11.2812 90.0428 11.3955 90.67 11.6087C91.3067 11.8265 91.9793 12.1095 92.6878 12.4575L93.0152 11.6926C93.1244 11.4377 93.1778 11.191 93.1756 10.9525C93.183 10.7188 93.0997 10.4939 92.9256 10.2779C92.7612 10.0665 92.4779 9.8621 92.0758 9.66457C91.6737 9.46704 91.3347 9.36577 91.0587 9.36076C90.7966 9.35065 90.584 9.40052 90.4211 9.51038C90.272 9.61515 90.1596 9.75578 90.0841 9.93229L89.9896 10.1529L88.5536 9.44745C88.565 9.39371 88.5812 9.34233 88.6022 9.2933C88.6232 9.24427 88.6483 9.18544 88.6777 9.1168C88.875 8.65592 89.1653 8.32973 89.5486 8.13822C89.9456 7.94161 90.4095 7.87283 90.9404 7.93188C91.4713 7.99093 92.0384 8.1686 92.6415 8.4649C93.2925 8.78471 93.7915 9.1485 94.1384 9.55626C94.499 9.95892 94.7139 10.3908 94.7829 10.852C94.852 11.3132 94.7795 11.7939 94.5654 12.294L92.8842 16.2212C92.8044 16.4075 92.7908 16.5611 92.8434 16.6819C92.9056 16.8073 92.9989 16.9006 93.1233 16.9618L93.6403 17.2158L93.1996 18.2454C93.0637 18.238 92.8991 18.2165 92.7058 18.1808C92.5125 18.1452 92.3009 18.0709 92.0711 17.9581C91.8126 17.8311 91.6134 17.6739 91.4735 17.4865C91.339 17.3136 91.2499 17.1155 91.2064 16.8924C91.1767 16.6642 91.1888 16.4328 91.2429 16.1982L91.1567 16.1559C90.8878 16.2968 90.5911 16.3943 90.2667 16.4485C89.9559 16.4977 89.6237 16.4888 89.27 16.4218C88.9121 16.3647 88.5369 16.2397 88.1444 16.0468ZM89.1023 14.9865C89.3991 15.1323 89.6909 15.2222 89.9776 15.2562C90.278 15.2851 90.5549 15.2609 90.8082 15.1836C91.0656 15.0964 91.2974 14.9611 91.5035 14.7775C91.7137 14.584 91.8797 14.3451 92.0015 14.0608L92.2218 13.546C91.5612 13.2214 90.9652 12.9761 90.4338 12.81C89.9024 12.6439 89.4517 12.6005 89.0817 12.6798C88.7159 12.7494 88.4532 12.9705 88.2937 13.3431C88.1972 13.5686 88.1632 13.7834 88.1918 13.9873C88.2245 14.1814 88.3199 14.3647 88.4778 14.5372C88.6356 14.7097 88.8438 14.8595 89.1023 14.9865Z" fill="white"/>
<path d="M97.2931 20.9209L102.046 13.9753L103.128 14.8251L102.473 16.0365L102.549 16.0958C102.775 15.935 103.013 15.8039 103.263 15.7024C103.521 15.6076 103.789 15.5743 104.066 15.6025C104.352 15.6374 104.637 15.7668 104.923 15.9908C105.057 16.0962 105.165 16.2016 105.248 16.3071C105.339 16.4191 105.408 16.507 105.454 16.5708L104.569 17.8648L104.128 17.5189C103.86 17.3081 103.591 17.1644 103.321 17.0877C103.059 17.0177 102.797 17.0147 102.534 17.0787C102.285 17.1406 102.043 17.2684 101.807 17.4622C101.58 17.6626 101.361 17.9168 101.15 18.2249L98.6018 21.9486L97.2931 20.9209Z" fill="white"/>
<path d="M104.789 27.7777C104.46 27.428 104.263 27.0856 104.196 26.7506C104.144 26.4155 104.175 26.0996 104.291 25.8029C104.421 25.5061 104.598 25.2364 104.823 24.9939L108.423 21.1095L107.699 20.3402L108.635 19.3309L109.38 20.1235L111.187 18.6199L112.097 19.5874L110.498 21.3125L111.539 22.4198L110.604 23.4291L109.562 22.3217L106.093 26.0653C105.926 26.2453 105.836 26.421 105.822 26.5926C105.808 26.7642 105.885 26.9394 106.053 27.1181L106.623 27.7242L105.862 28.5457C105.76 28.4993 105.643 28.4295 105.512 28.3365C105.38 28.259 105.253 28.1698 105.129 28.0688C104.997 27.9757 104.884 27.8787 104.789 27.7777Z" fill="white"/>
<path d="M108.344 31.2101L115.171 26.2887L115.903 27.4539L115.006 28.2775L115.065 28.3724C115.424 28.3631 115.759 28.4166 116.071 28.533C116.383 28.6493 116.67 28.8163 116.933 29.0339C117.201 29.2606 117.443 29.5455 117.658 29.8887C117.942 30.3404 118.114 30.7939 118.174 31.2494C118.242 31.6987 118.167 32.1398 117.949 32.5727C117.736 33.0147 117.345 33.4415 116.773 33.8532L112.114 37.2121L111.229 35.803L115.681 32.5939C115.94 32.4067 116.134 32.2147 116.262 32.0177C116.395 31.8297 116.474 31.635 116.498 31.4337C116.523 31.2324 116.502 31.0304 116.438 30.8276C116.373 30.6248 116.276 30.4195 116.145 30.2118C115.941 29.8866 115.676 29.6447 115.35 29.486C115.038 29.3301 114.697 29.2675 114.327 29.2983C113.957 29.3291 113.59 29.4754 113.226 29.7374L109.229 32.6191L108.344 31.2101Z" fill="white"/>
<path d="M116.132 46.16C115.861 45.3396 115.778 44.5961 115.883 43.9294C116.002 43.269 116.318 42.6817 116.833 42.1674C117.348 41.6531 118.074 41.2183 119.011 40.8628C119.959 40.5035 120.779 40.3523 121.471 40.409C122.173 40.4619 122.761 40.712 123.234 41.1594C123.717 41.603 124.096 42.24 124.371 43.0705C124.621 43.8302 124.686 44.518 124.564 45.1341C124.455 45.7565 124.155 46.309 123.664 46.7917C123.173 47.2744 122.488 47.6821 121.61 48.0149L121.012 48.2418L119.16 42.6359C118.608 42.8679 118.167 43.1317 117.839 43.4273C117.52 43.7192 117.321 44.0511 117.242 44.423C117.176 44.8012 117.222 45.2284 117.379 45.7044C117.476 45.9981 117.598 46.2482 117.745 46.4547C117.901 46.6574 118.076 46.8133 118.269 46.9224C118.473 47.0277 118.689 47.0881 118.919 47.1037C119.158 47.1154 119.408 47.0721 119.667 46.9738L120.179 48.5234C119.71 48.7011 119.269 48.777 118.857 48.7511C118.444 48.7252 118.061 48.6025 117.708 48.3831C117.369 48.17 117.064 47.8754 116.793 47.4992C116.523 47.1229 116.303 46.6766 116.132 46.16ZM120.307 42.2351L121.602 46.1547C121.991 46.0072 122.3 45.8388 122.529 45.6493C122.771 45.4662 122.951 45.2614 123.067 45.0351C123.183 44.8087 123.239 44.5709 123.235 44.3216C123.241 44.0686 123.197 43.8002 123.104 43.5166C122.963 43.0913 122.768 42.755 122.518 42.5079C122.271 42.2709 121.962 42.1319 121.589 42.0909C121.226 42.046 120.799 42.0941 120.307 42.2351Z" fill="white"/>
<path d="M118.903 55.2633L127.227 54.0188L127.404 55.3832L126.078 55.7271L126.09 55.8223C126.367 55.8781 126.63 55.9627 126.882 56.076C127.134 56.2 127.351 56.3726 127.53 56.5938C127.711 56.8256 127.825 57.1213 127.871 57.4809C127.893 57.6501 127.897 57.8006 127.882 57.9322C127.868 58.0745 127.855 58.1842 127.844 58.2614L126.293 58.4932L126.221 57.9379C126.177 57.5995 126.085 57.3059 125.945 57.0572C125.806 56.8191 125.62 56.626 125.385 56.4777C125.163 56.3384 124.898 56.2486 124.592 56.2081C124.287 56.1782 123.95 56.1909 123.581 56.2461L119.118 56.9133L118.903 55.2633Z" fill="white"/>
<path d="M120.372 71.1634L131.656 71.2467L131.196 73.0942L123.79 72.9224C123.67 72.9212 123.507 72.9134 123.302 72.8991C123.096 72.8848 122.882 72.8624 122.659 72.8318C122.444 72.8146 122.245 72.7966 122.063 72.7778L122.04 72.8709C122.165 72.9401 122.302 73.007 122.451 73.0717C122.6 73.1364 122.747 73.2063 122.893 73.2813C123.039 73.3563 123.177 73.4233 123.305 73.4821C123.43 73.5513 123.533 73.6028 123.612 73.6366L130.148 77.3015L129.591 79.5372L122.216 79.2412C122.095 79.24 121.932 79.2322 121.727 79.2179C121.522 79.2036 121.308 79.1812 121.085 79.1506C120.869 79.1334 120.671 79.1154 120.488 79.0966L120.465 79.1897C120.583 79.2456 120.715 79.3111 120.861 79.3861C121.007 79.4611 121.148 79.5347 121.284 79.6068C121.43 79.6819 121.566 79.754 121.692 79.8231C121.815 79.9027 121.925 79.9674 122.022 80.0175L128.523 83.8222L128.113 85.4678L118.291 79.516L118.798 77.4822L126.288 77.7114C126.45 77.7244 126.633 77.738 126.838 77.7523C127.054 77.7696 127.269 77.7868 127.485 77.8041C127.708 77.8346 127.899 77.8615 128.058 77.8848L128.077 77.8072C127.918 77.7395 127.735 77.6594 127.527 77.5668C127.32 77.4741 127.119 77.3778 126.924 77.2778C126.739 77.1806 126.584 77.0975 126.459 77.0283L119.85 73.2593L120.372 71.1634Z" fill="white"/>
<path d="M122.699 96.2548L124.135 97.1563L123.337 98.6162L121.9 97.7147L122.699 96.2548ZM114.337 91.0075L121.466 95.4809L120.667 96.9408L113.538 92.4675L114.337 91.0075Z" fill="white"/>
<path d="M110.178 97.8026C110.459 97.4133 110.75 97.1641 111.052 97.0549C111.356 96.9611 111.653 96.9584 111.944 97.047C112.236 97.151 112.51 97.3084 112.764 97.5193L116.843 100.897L117.461 100.041L118.521 100.918L117.884 101.801L119.518 103.547L118.741 104.624L116.929 103.124L116.04 104.357L114.98 103.479L115.87 102.247L111.939 98.9911C111.75 98.8347 111.575 98.7589 111.414 98.7637C111.253 98.7686 111.1 98.8705 110.957 99.0694L110.47 99.7441L109.607 99.0297C109.637 98.916 109.686 98.7841 109.755 98.6339C109.81 98.4856 109.875 98.3398 109.953 98.1965C110.022 98.0463 110.097 97.915 110.178 97.8026Z" fill="white"/>
<path d="M107.769 102.147L115.065 111.124L113.848 112.259L111.224 109.031L111.142 109.107C111.155 109.444 111.122 109.766 111.043 110.073C110.97 110.389 110.847 110.693 110.673 110.985C110.5 111.278 110.273 111.556 109.992 111.817C109.602 112.181 109.198 112.427 108.78 112.554C108.37 112.69 107.951 112.673 107.525 112.503C107.091 112.34 106.652 111.986 106.208 111.439L102.585 106.982L103.802 105.847L107.263 110.106C107.465 110.354 107.665 110.532 107.862 110.639C108.051 110.754 108.24 110.81 108.43 110.807C108.62 110.805 108.806 110.755 108.988 110.658C109.17 110.561 109.35 110.429 109.53 110.262C109.811 110 110.011 109.69 110.131 109.331C110.242 108.979 110.264 108.609 110.196 108.222C110.128 107.834 109.949 107.462 109.66 107.107L106.552 103.282L107.769 102.147Z" fill="white"/>
<path d="M88.6114 116.083C89.498 115.775 90.307 115.652 91.0384 115.713C91.7729 115.785 92.4042 116.068 92.9323 116.561C93.4604 117.055 93.8668 117.771 94.1513 118.71L96.1415 125.279L94.4489 125.868L92.4448 119.253C92.1819 118.385 91.7572 117.811 91.1709 117.529C90.5845 117.248 89.8782 117.251 89.0521 117.538C88.2158 117.829 87.6325 118.274 87.302 118.874C86.9615 119.478 86.9226 120.213 87.1855 121.081L89.1896 127.696L87.497 128.285L85.5068 121.716C85.2223 120.776 85.1635 119.939 85.3306 119.204C85.4876 118.473 85.8487 117.845 86.4139 117.321C86.9721 116.811 87.7046 116.399 88.6114 116.083Z" fill="white"/>
<path d="M74.7129 119.591C75.2991 119.569 75.8182 119.614 76.27 119.725C76.7218 119.836 77.1006 119.998 77.4064 120.211C77.7121 120.424 77.9499 120.682 78.1198 120.985C78.2794 121.299 78.3654 121.648 78.3779 122.032C78.3796 122.085 78.3812 122.133 78.3826 122.176C78.3733 122.219 78.3692 122.257 78.3702 122.289L76.7233 122.35C76.7223 122.318 76.7213 122.286 76.7202 122.254C76.7195 122.233 76.7187 122.206 76.7176 122.174C76.7069 121.844 76.6077 121.58 76.4199 121.385C76.2325 121.199 75.9881 121.07 75.6869 120.996C75.3754 120.932 75.0384 120.908 74.676 120.921C74.3562 120.933 74.0643 120.981 73.8002 121.066C73.5258 121.161 73.306 121.292 73.1406 121.459C72.9646 121.625 72.8806 121.831 72.8885 122.076C72.8989 122.396 73.0188 122.637 73.2481 122.8C73.4775 122.962 73.775 123.084 74.1405 123.167C74.5064 123.26 74.8884 123.358 75.2866 123.46C75.6415 123.543 75.9965 123.631 76.3517 123.725C76.6966 123.829 77.0106 123.967 77.2936 124.138C77.5766 124.309 77.8079 124.53 77.9875 124.801C78.167 125.071 78.2635 125.415 78.277 125.831C78.2898 126.225 78.2158 126.575 78.0549 126.879C77.894 127.184 77.6676 127.444 77.3758 127.657C77.0732 127.871 76.7158 128.039 76.3036 128.162C75.8806 128.284 75.4187 128.355 74.9177 128.373C74.3954 128.393 73.9298 128.351 73.521 128.249C73.1124 128.158 72.7663 128.016 72.4826 127.823C72.1883 127.632 71.9618 127.394 71.8032 127.112C71.645 126.841 71.5607 126.545 71.5503 126.225C71.5482 126.161 71.5513 126.092 71.5596 126.017C71.5575 125.953 71.5561 125.91 71.5554 125.889L73.1863 125.828L73.191 125.972C73.1979 126.185 73.2627 126.375 73.3855 126.541C73.5083 126.707 73.6993 126.839 73.9586 126.936C74.2072 127.033 74.5394 127.074 74.9551 127.059C75.2323 127.049 75.4766 127.013 75.688 126.952C75.8998 126.901 76.0736 126.83 76.2094 126.74C76.3452 126.65 76.4485 126.544 76.5193 126.424C76.5795 126.305 76.6071 126.17 76.6023 126.021C76.5944 125.776 76.5029 125.587 76.3278 125.455C76.1424 125.334 75.9043 125.23 75.6134 125.145C75.3228 125.071 75.0106 124.986 74.6767 124.892C74.2895 124.799 73.8968 124.702 73.4986 124.599C73.1008 124.507 72.7339 124.382 72.3979 124.224C72.0513 124.066 71.7718 123.842 71.5596 123.551C71.3368 123.26 71.2172 122.864 71.2009 122.363C71.1861 121.905 71.2637 121.502 71.4338 121.154C71.604 120.806 71.8508 120.519 72.1743 120.294C72.4875 120.079 72.8611 119.916 73.295 119.804C73.7286 119.681 74.2012 119.61 74.7129 119.591Z" fill="white"/>
</svg>
