<svg width="32" height="32" viewBox="0 0 32 32" fill="none" xmlns="http://www.w3.org/2000/svg">
<path opacity="0.4" d="M29.3346 16.0003C29.3346 23.3657 23.3653 29.3337 16.0013 29.3337C8.6373 29.3337 2.66797 23.3657 2.66797 16.0003C2.66797 8.63766 8.6373 2.66699 16.0013 2.66699C23.3653 2.66699 29.3346 8.63766 29.3346 16.0003Z" fill="#2B63C3"/>
<path d="M20.7632 21.0854C20.5836 21.0851 20.4073 21.0367 20.2526 20.9454L15.0179 17.8227C14.8696 17.7334 14.7469 17.6073 14.6616 17.4567C14.5764 17.306 14.5315 17.1359 14.5312 16.9627V10.2334C14.5312 9.96818 14.6366 9.71383 14.8241 9.52629C15.0117 9.33876 15.266 9.2334 15.5312 9.2334C15.7965 9.2334 16.0508 9.33876 16.2384 9.52629C16.4259 9.71383 16.5312 9.96818 16.5312 10.2334V16.3947L21.2779 19.2254C21.4647 19.3387 21.6094 19.5098 21.6899 19.7128C21.7705 19.9158 21.7826 20.1396 21.7244 20.3501C21.6661 20.5607 21.5407 20.7464 21.3672 20.8791C21.1938 21.0118 20.9817 21.0843 20.7632 21.0854Z" fill="#2B63C3"/>
</svg>
