<svg width="24" height="24" viewBox="0 0 24 24" fill="none" xmlns="http://www.w3.org/2000/svg">
<path fill-rule="evenodd" clip-rule="evenodd" d="M19.498 1.92188H4.50567C3.08603 1.92188 1.92188 3.08607 1.92188 4.50576V19.498C1.92188 20.9177 3.08603 22.0819 4.50567 22.0819H19.498C20.9177 22.0819 22.0819 20.9177 22.0819 19.498V4.50576C22.0819 3.08607 20.9177 1.92188 19.498 1.92188ZM17.3531 9.30014C17.3578 9.41747 17.3601 9.53489 17.3601 9.65231C17.3601 10.1921 17.2964 10.7438 17.1727 11.2918C16.4731 14.3938 13.8211 17.383 9.50586 17.383C7.94791 17.383 6.4966 16.9336 5.27364 16.1621C5.4926 16.1878 5.71288 16.2006 5.93334 16.2004C7.22647 16.2004 8.41638 15.7667 9.36142 15.0366C8.15342 15.0154 7.13475 14.2296 6.783 13.1502C6.95192 13.1819 7.12454 13.1999 7.30187 13.1999C7.55521 13.1999 7.7978 13.1659 8.03044 13.104C7.10047 12.9187 6.34758 12.2754 6.01074 11.423C5.88961 11.118 5.82783 10.7865 5.82783 10.4383V10.4041C6.20583 10.608 6.62033 10.7303 7.07208 10.7446C6.33208 10.2571 5.8411 9.42496 5.8411 8.48299C5.8411 7.98512 5.97634 7.51821 6.2131 7.11652C7.57423 8.76053 9.60733 9.84278 11.9015 9.95648C11.8545 9.75338 11.8307 9.5456 11.8306 9.33714C11.8306 7.83652 13.0659 6.61979 14.5907 6.61979C15.385 6.61979 16.102 6.94911 16.6043 7.47747C17.2221 7.35837 17.8152 7.13508 18.3582 6.81714C18.1511 7.4526 17.7147 7.98512 17.1442 8.32121C17.7031 8.25556 18.2344 8.1099 18.7293 7.89423C18.3603 8.43872 17.8915 8.9174 17.3531 9.30014Z" fill="#4A5168"/>
</svg>
